<?xml version="1.0" encoding="UTF-8" standalone="no"?>
<svg
   xmlns:dc="http://purl.org/dc/elements/1.1/"
   xmlns:cc="http://creativecommons.org/ns#"
   xmlns:rdf="http://www.w3.org/1999/02/22-rdf-syntax-ns#"
   xmlns:svg="http://www.w3.org/2000/svg"
   xmlns="http://www.w3.org/2000/svg"
   xmlns:sodipodi="http://sodipodi.sourceforge.net/DTD/sodipodi-0.dtd"
   xmlns:inkscape="http://www.inkscape.org/namespaces/inkscape"
   width="183.95126mm"
   height="26.361319mm"
   viewBox="0 0 183.95127 26.361318"
   version="1.1"
   id="svg954"
   inkscape:version="1.0.1 (3bc2e813f5, 2020-09-07, custom)"
   sodipodi:docname="banner.svg">
  <defs
     id="defs948" />
  <sodipodi:namedview
     id="base"
     pagecolor="#ffffff"
     bordercolor="#666666"
     borderopacity="1.0"
     inkscape:pageopacity="0.0"
     inkscape:pageshadow="2"
     inkscape:zoom="0.98994949"
     inkscape:cx="684.81871"
     inkscape:cy="-6.3689485"
     inkscape:document-units="mm"
     inkscape:current-layer="layer1"
     inkscape:document-rotation="0"
     showgrid="false"
     inkscape:window-width="1676"
     inkscape:window-height="984"
     inkscape:window-x="0"
     inkscape:window-y="0"
     inkscape:window-maximized="1"
     fit-margin-top="0"
     fit-margin-left="0"
     fit-margin-right="0"
     fit-margin-bottom="0" />
  <metadata
     id="metadata951">
    <rdf:RDF>
      <cc:Work
         rdf:about="">
        <dc:format>image/svg+xml</dc:format>
        <dc:type
           rdf:resource="http://purl.org/dc/dcmitype/StillImage" />
        <dc:title></dc:title>
      </cc:Work>
    </rdf:RDF>
  </metadata>
  <g
     inkscape:label="Ebene 1"
     inkscape:groupmode="layer"
     id="layer1"
     transform="translate(-23.320816,-29.216291)">
    <rect
       style="fill:#ffffff;stroke:#ffffff;stroke-width:0.195634;stroke-linejoin:round;stroke-dashoffset:2.582"
       id="rect1567"
       width="183.75563"
       height="26.165684"
       x="23.418633"
       y="29.314108"
       ry="5.141067" />
    <g
       id="g1553"
       transform="matrix(0.58294293,0,0,0.58294293,22.853223,21.548797)">
      <rect
         style="fill:#008000;stroke:#000000;stroke-width:0.499999;stroke-linecap:round"
         id="rect833"
         width="40"
         height="40"
         x="7.5686393"
         y="15.854585"
         ry="5.1999998" />
      <path
         style="fill:#ffffff;stroke:#ffffff;stroke-width:0.809001;stroke-linecap:butt;stroke-linejoin:miter;stroke-miterlimit:4;stroke-dasharray:none;stroke-opacity:1"
         d="m 27.060699,34.285055 0.08508,19.281469"
         id="path845"
         sodipodi:nodetypes="cc" />
      <path
         d="m 27.05859,35.34618 c 0,0 6.144461,-5.822904 6.144461,-10.240773 a 6.1444621,6.1444621 0 0 0 -12.288924,0 c 0,4.417869 6.144463,10.240773 6.144463,10.240773 z m 0,-7.168541 a 3.0722313,3.0722313 0 1 1 0,-6.144461 3.0722313,3.0722313 0 0 1 0,6.144461 z"
         id="path18662"
         style="fill:#ffffff;stroke-width:1.02407" />
      <path
         style="fill:none;stroke:#ffffff;stroke-width:0.809001;stroke-linecap:butt;stroke-linejoin:miter;stroke-miterlimit:4;stroke-dasharray:none;stroke-opacity:1"
         d="m 17.865686,50.869586 9.155451,-15.594842 9.488502,15.594842"
         id="path19265"
         sodipodi:nodetypes="ccc" />
      <path
         style="fill:none;stroke:#ffffff;stroke-width:0.809022;stroke-linecap:butt;stroke-linejoin:miter;stroke-miterlimit:4;stroke-dasharray:none;stroke-opacity:1"
         d="M 13.479084,47.141586 27.05859,35.362884 40.91864,47.141586"
         id="path19267"
         sodipodi:nodetypes="ccc" />
      <circle
         style="fill:none;stroke:#ffffff;stroke-width:0.2;stroke-linecap:butt;stroke-linejoin:round;stroke-miterlimit:4;stroke-dasharray:none;stroke-dashoffset:2.582"
         id="path946"
         cx="27.218641"
         cy="35.60458"
         r="17.953962" />
    </g>
    <g
       aria-label="KA Stadtführer"
       id="text1557"
       style="font-style:normal;font-variant:normal;font-weight:900;font-stretch:normal;font-size:19.518px;line-height:1.25;font-family:'Work Sans';-inkscape-font-specification:'Work Sans Heavy';letter-spacing:0px;word-spacing:0px;fill:#000000;fill-opacity:1;stroke:none;stroke-width:0.487951">
      <path
         d="m 70.312001,36.538248 -6.323832,8.217078 -0.19518,-0.995418 -2.83011,3.864564 -1.053972,-3.142398 5.56263,-7.943826 z m -8.19756,0 v 12.88188 h -4.547694 v -12.88188 z m 3.591312,3.923118 4.957572,8.958762 h -5.094198 l -3.200952,-6.44094 z"
         style="font-style:normal;font-variant:normal;font-weight:900;font-stretch:normal;font-family:'Work Sans';-inkscape-font-specification:'Work Sans Heavy';stroke-width:0.487951"
         id="path847" />
      <path
         d="m 70.390055,49.420128 4.176852,-12.88188 h 5.465039 l 4.19637,12.88188 H 79.583032 L 77.826413,42.022806 77.299427,39.83679 h -0.05855 l -0.507468,2.186016 -1.815174,7.397322 z m 3.259506,-2.459268 v -2.83011 h 7.358285 v 2.83011 z"
         style="font-style:normal;font-variant:normal;font-weight:900;font-stretch:normal;font-family:'Work Sans';-inkscape-font-specification:'Work Sans Heavy';stroke-width:0.487951"
         id="path849" />
      <path
         d="m 95.334001,36.343068 q 1.85421,0 3.31806,0.468432 1.483369,0.448914 2.615409,1.36626 l -1.834689,2.9277 q -0.917346,-0.644094 -1.932282,-1.034454 -0.995418,-0.39036 -2.166498,-0.39036 -0.507468,0 -0.819756,0.07807 -0.29277,0.07807 -0.429395,0.214698 -0.117108,0.136626 -0.117108,0.312288 0,0.234216 0.351323,0.351324 0.370842,0.117108 0.917346,0.253734 l 1.776138,0.409878 q 1.971318,0.448914 2.966736,1.327224 1.014935,0.87831 1.014935,2.43975 0,1.56144 -0.7612,2.576376 -0.761203,0.995418 -2.068909,1.483368 -1.288188,0.48795 -2.9277,0.48795 -1.229633,0 -2.459267,-0.214698 -1.229634,-0.234216 -2.283606,-0.663612 -1.053972,-0.448914 -1.815174,-1.07349 l 1.795656,-2.986254 q 0.566022,0.448914 1.36626,0.819756 0.800238,0.351324 1.65903,0.566022 0.858791,0.214698 1.600475,0.214698 0.468432,0 0.741684,-0.07807 0.273252,-0.07807 0.370842,-0.19518 0.117108,-0.136626 0.117108,-0.312288 0,-0.273252 -0.234216,-0.409878 -0.214698,-0.136626 -0.800238,-0.273252 l -1.951799,-0.429396 q -1.034454,-0.234216 -1.971318,-0.624576 -0.936864,-0.39036 -1.522404,-1.132044 -0.58554,-0.761202 -0.58554,-2.04939 0,-1.327224 0.702648,-2.322642 0.722166,-0.995418 2.068908,-1.541922 1.36626,-0.566022 3.298541,-0.566022 z"
         style="font-style:normal;font-variant:normal;font-weight:900;font-stretch:normal;font-family:'Work Sans';-inkscape-font-specification:'Work Sans Heavy';stroke-width:0.487951"
         id="path851" />
      <path
         d="m 107.41562,36.343068 v 9.095388 q 0,0.663612 0.27325,0.956382 0.29277,0.273252 0.89783,0.273252 0.39036,0 0.68313,-0.05855 0.29277,-0.05855 0.5465,-0.19518 l 0.19518,2.53734 q -0.48795,0.312288 -1.32722,0.48795 -0.83927,0.175662 -1.58096,0.175662 -1.36626,0 -2.30312,-0.331806 -0.91735,-0.351324 -1.4053,-1.112526 -0.46843,-0.761202 -0.46843,-2.029872 V 37.59222 Z m 2.45927,3.31806 v 3.02529 h -8.4513 v -3.02529 z"
         style="font-style:normal;font-variant:normal;font-weight:900;font-stretch:normal;font-family:'Work Sans';-inkscape-font-specification:'Work Sans Heavy';stroke-width:0.487951"
         id="path853" />
      <path
         d="m 116.45244,43.330512 q 0,-0.448914 -0.2147,-0.702648 -0.19518,-0.253734 -0.62457,-0.253734 -0.40988,0 -0.68313,0.234216 -0.27326,0.234216 -0.31229,0.936864 l -3.78649,-0.546504 q 0.13662,-1.619994 1.40529,-2.576376 1.26867,-0.956382 3.6889,-0.956382 1.69807,0 2.79108,0.468432 1.11252,0.468432 1.63951,1.307706 0.5465,0.839274 0.5465,1.9518 v 3.02529 q 0,0.800238 0.76121,0.800238 0.21469,0 0.3318,-0.05855 l -0.19518,2.303124 q -0.72216,0.351324 -1.7371,0.351324 -0.91735,0 -1.63951,-0.253734 -0.70265,-0.273252 -1.11253,-0.800238 -0.39036,-0.546504 -0.39036,-1.385778 v -0.19518 h 0.4294 q -0.0195,0.741684 -0.48795,1.346742 -0.44892,0.58554 -1.21012,0.936864 -0.7612,0.351324 -1.7371,0.351324 -1.03445,0 -1.75662,-0.312288 -0.70265,-0.312288 -1.07349,-0.897828 -0.37084,-0.58554 -0.37084,-1.385778 0,-1.07349 0.68313,-1.737102 0.68313,-0.68313 1.97132,-0.936864 l 3.39613,-0.702648 -0.0195,1.580958 -1.05397,0.253734 q -0.40988,0.09759 -0.58554,0.331806 -0.17566,0.214698 -0.17566,0.546504 0,0.312288 0.19518,0.507468 0.19518,0.19518 0.5465,0.19518 0.15614,0 0.29277,-0.05855 0.15614,-0.05855 0.25373,-0.175662 0.11711,-0.117108 0.17567,-0.273252 0.0585,-0.175662 0.0585,-0.39036 z"
         style="font-style:normal;font-variant:normal;font-weight:900;font-stretch:normal;font-family:'Work Sans';-inkscape-font-specification:'Work Sans Heavy';stroke-width:0.487951"
         id="path855" />
      <path
         d="m 125.9772,49.615308 q -1.1906,0 -2.02987,-0.58554 -0.83928,-0.605058 -1.26867,-1.717584 -0.4294,-1.132044 -0.4294,-2.713002 0,-1.639512 0.4294,-2.771556 0.44891,-1.151562 1.28818,-1.75662 0.83928,-0.605058 2.02988,-0.605058 1.42481,0 2.18601,0.936864 0.7612,0.917346 0.95638,2.322642 l -0.39036,0.58554 v -7.553466 h 4.48914 v 13.6626 h -4.04022 l -0.27325,-3.942636 0.50746,0.566022 q -0.1171,1.034454 -0.56602,1.85421 -0.42939,0.800238 -1.17108,1.26867 -0.72216,0.448914 -1.71758,0.448914 z m 1.81517,-3.142398 q 0.31229,0 0.50747,-0.19518 0.2147,-0.214698 0.33181,-0.644094 0.1171,-0.429396 0.1171,-1.093008 0,-0.624576 -0.0976,-1.053972 -0.0976,-0.429396 -0.31228,-0.644094 -0.2147,-0.214698 -0.54651,-0.214698 -0.46843,0 -0.74168,0.39036 -0.27325,0.370842 -0.27325,1.522404 0,1.151562 0.27325,1.541922 0.27325,0.39036 0.74168,0.39036 z"
         style="font-style:normal;font-variant:normal;font-weight:900;font-stretch:normal;font-family:'Work Sans';-inkscape-font-specification:'Work Sans Heavy';stroke-width:0.487951"
         id="path857" />
      <path
         d="m 140.04966,36.343068 v 9.095388 q 0,0.663612 0.27325,0.956382 0.29277,0.273252 0.89783,0.273252 0.39036,0 0.68313,-0.05855 0.29277,-0.05855 0.5465,-0.19518 l 0.19518,2.53734 q -0.48795,0.312288 -1.32722,0.48795 -0.83927,0.175662 -1.58096,0.175662 -1.36626,0 -2.30312,-0.331806 -0.91735,-0.351324 -1.4053,-1.112526 -0.46843,-0.761202 -0.46843,-2.029872 V 37.59222 Z m 2.45927,3.31806 v 3.02529 h -8.4513 v -3.02529 z"
         style="font-style:normal;font-variant:normal;font-weight:900;font-stretch:normal;font-family:'Work Sans';-inkscape-font-specification:'Work Sans Heavy';stroke-width:0.487951"
         id="path859" />
      <path
         d="m 148.48142,35.367168 q 0.9759,0 1.69807,0.19518 0.72216,0.19518 1.03445,0.409878 l -0.29277,2.595894 q -0.19518,-0.09759 -0.46843,-0.175662 -0.27325,-0.09759 -0.72217,-0.09759 -0.60506,0 -1.01493,0.253734 -0.40988,0.234216 -0.40988,0.956382 v 1.132044 l 0.31229,0.566022 v 8.217078 h -4.48914 v -10.14936 q 0,-1.132044 0.37084,-1.873728 0.39036,-0.761202 1.03445,-1.210116 0.6441,-0.448914 1.4053,-0.624576 0.78072,-0.19518 1.54192,-0.19518 z m 2.59589,4.29396 v 3.02529 h -8.25611 v -3.02529 z"
         style="font-style:normal;font-variant:normal;font-weight:900;font-stretch:normal;font-family:'Work Sans';-inkscape-font-specification:'Work Sans Heavy';stroke-width:0.487951"
         id="path861" />
      <path
         d="m 155.05895,49.615308 q -1.01493,0 -1.71758,-0.331806 -0.70265,-0.351324 -1.07349,-1.093008 -0.37084,-0.741684 -0.37084,-1.932282 v -6.597084 h 4.48914 v 5.56263 q 0,0.566022 0.17566,0.819756 0.19518,0.253734 0.56602,0.253734 0.2147,0 0.37084,-0.07807 0.17567,-0.09759 0.27326,-0.273252 0.1171,-0.175662 0.17566,-0.448914 0.0585,-0.29277 0.0585,-0.663612 v -5.17227 h 4.48914 v 9.759 h -4.04022 l -0.0976,-2.068908 q -0.4294,1.132044 -1.26867,1.698066 -0.81976,0.566022 -2.02988,0.566022 z m -0.31228,-14.24814 q 0.9759,0 1.50288,0.468432 0.54651,0.448914 0.54651,1.307706 0,0.839274 -0.54651,1.307706 -0.52698,0.468432 -1.50288,0.468432 -0.95639,0 -1.48337,-0.468432 -0.50747,-0.468432 -0.50747,-1.307706 0,-0.858792 0.50747,-1.307706 0.52698,-0.468432 1.48337,-0.468432 z m 4.62576,0 q 0.9759,0 1.50289,0.468432 0.5465,0.448914 0.5465,1.307706 0,0.839274 -0.5465,1.307706 -0.52699,0.468432 -1.50289,0.468432 -0.95638,0 -1.48337,-0.468432 -0.50746,-0.468432 -0.50746,-1.307706 0,-0.858792 0.50746,-1.307706 0.52699,-0.468432 1.48337,-0.468432 z"
         style="font-style:normal;font-variant:normal;font-weight:900;font-stretch:normal;font-family:'Work Sans';-inkscape-font-specification:'Work Sans Heavy';stroke-width:0.487951"
         id="path863" />
      <path
         d="m 164.0177,49.420128 v -13.6626 h 4.48914 v 5.894436 q 0.39036,-1.053972 1.15156,-1.619994 0.78072,-0.566022 1.89325,-0.566022 0.9759,0 1.65903,0.39036 0.68313,0.370842 1.03445,1.112526 0.37084,0.722166 0.37084,1.776138 v 6.675156 h -4.48914 v -5.504076 q 0,-0.663612 -0.17566,-0.897828 -0.15614,-0.253734 -0.50747,-0.253734 -0.31229,0 -0.52698,0.175662 -0.2147,0.156144 -0.31229,0.507468 -0.0976,0.331806 -0.0976,0.858792 v 5.113716 z"
         style="font-style:normal;font-variant:normal;font-weight:900;font-stretch:normal;font-family:'Work Sans';-inkscape-font-specification:'Work Sans Heavy';stroke-width:0.487951"
         id="path865" />
      <path
         d="m 176.11883,49.420128 v -9.759 h 4.04023 l 0.0976,2.43975 q 0.33181,-1.210116 1.01494,-1.912764 0.70264,-0.722166 1.85421,-0.722166 0.44891,0 0.68313,0.07807 0.23421,0.07807 0.3318,0.156144 l -0.37084,3.61083 q -0.17566,-0.07807 -0.50747,-0.136626 -0.3318,-0.05855 -0.72216,-0.05855 -0.58554,0 -1.01494,0.19518 -0.4294,0.175662 -0.68313,0.526986 -0.23422,0.351324 -0.23422,0.897828 v 4.68432 z"
         style="font-style:normal;font-variant:normal;font-weight:900;font-stretch:normal;font-family:'Work Sans';-inkscape-font-specification:'Work Sans Heavy';stroke-width:0.487951"
         id="path867" />
      <path
         d="m 189.9961,49.615308 q -1.75662,0 -3.00577,-0.58554 -1.24915,-0.605058 -1.91276,-1.737102 -0.66362,-1.132044 -0.66362,-2.752038 0,-1.619994 0.66362,-2.752038 0.68313,-1.132044 1.89324,-1.717584 1.22964,-0.605058 2.84963,-0.605058 1.65903,0 2.81059,0.605058 1.17108,0.58554 1.77614,1.65903 0.60506,1.07349 0.60506,2.498304 0,0.312288 -0.039,0.644094 -0.0195,0.331806 -0.0585,0.526986 h -7.61202 v -1.65903 h 5.66022 l -2.12746,0.839274 q 0,-1.053972 -0.19518,-1.600476 -0.17567,-0.546504 -0.80024,-0.546504 -0.40988,0 -0.68313,0.19518 -0.25374,0.19518 -0.37084,0.68313 -0.11711,0.468432 -0.11711,1.307706 0,0.839274 0.15614,1.288188 0.15615,0.429396 0.44892,0.58554 0.31228,0.136626 0.78072,0.136626 0.50746,0 0.78072,-0.214698 0.29277,-0.234216 0.39036,-0.624576 l 3.61083,0.9759 q -0.2147,0.956382 -0.95639,1.600476 -0.74168,0.624576 -1.77613,0.936864 -1.01494,0.312288 -2.10795,0.312288 z"
         style="font-style:normal;font-variant:normal;font-weight:900;font-stretch:normal;font-family:'Work Sans';-inkscape-font-specification:'Work Sans Heavy';stroke-width:0.487951"
         id="path869" />
      <path
         d="m 196.10524,49.420128 v -9.759 h 4.04022 l 0.0976,2.43975 q 0.33181,-1.210116 1.01494,-1.912764 0.70265,-0.722166 1.85421,-0.722166 0.44891,0 0.68313,0.07807 0.23422,0.07807 0.33181,0.156144 l -0.37085,3.61083 q -0.17566,-0.07807 -0.50746,-0.136626 -0.33181,-0.05855 -0.72217,-0.05855 -0.58554,0 -1.01494,0.19518 -0.42939,0.175662 -0.68313,0.526986 -0.23421,0.351324 -0.23421,0.897828 v 4.68432 z"
         style="font-style:normal;font-variant:normal;font-weight:900;font-stretch:normal;font-family:'Work Sans';-inkscape-font-specification:'Work Sans Heavy';stroke-width:0.487951"
         id="path871" />
    </g>
  </g>
</svg>
